<?xml version="1.0" standalone="no"?>
<!DOCTYPE svg PUBLIC "-//W3C//DTD SVG 20010904//EN"
 "http://www.w3.org/TR/2001/REC-SVG-20010904/DTD/svg10.dtd">
<svg version="1.0" xmlns="http://www.w3.org/2000/svg"
 width="568.000000pt" height="568.000000pt" viewBox="0 0 568.000000 568.000000"
 preserveAspectRatio="xMidYMid meet">
<metadata>
Created by potrace 1.14, written by Peter Selinger 2001-2017
</metadata>
<g transform="translate(0.000000,568.000000) scale(0.100000,-0.100000)"
fill="#000000" stroke="none">
<path d="M2508 5665 c-2 -1 -35 -6 -74 -9 -39 -4 -109 -13 -155 -21 -46 -9
-96 -17 -111 -20 -68 -12 -264 -71 -368 -112 -310 -122 -573 -296 -815 -538
-279 -279 -429 -515 -573 -900 -51 -136 -94 -270 -107 -335 -2 -8 -8 -36 -14
-63 -27 -117 -36 -225 -36 -452 0 -258 7 -325 56 -540 17 -71 32 -138 34 -148
5 -20 34 -107 72 -212 47 -131 133 -309 209 -435 78 -130 174 -333 219 -465
20 -60 38 -114 39 -120 2 -5 8 -30 15 -55 7 -25 15 -53 17 -62 2 -10 7 -28 10
-40 3 -13 7 -33 9 -45 2 -11 6 -31 10 -43 4 -12 8 -32 10 -43 8 -51 15 -94 20
-117 8 -38 25 -177 31 -250 3 -36 7 -85 9 -110 2 -25 5 -112 5 -193 1 -199 17
-240 110 -295 l45 -27 1275 0 c701 0 1292 3 1313 7 55 12 110 52 138 101 l24
42 2 389 c2 214 5 391 7 393 2 2 43 6 92 8 49 2 98 6 109 8 11 3 41 7 66 11
69 10 202 60 254 95 25 17 48 31 51 31 3 0 27 21 53 48 51 52 99 118 123 172
28 62 48 112 53 134 2 11 9 39 14 61 14 59 28 160 30 221 l1 31 152 2 c214 2
301 28 392 117 85 83 118 201 91 334 -13 64 -10 57 -95 260 -28 69 -56 134
-60 145 -51 122 -80 288 -95 550 -17 298 -30 463 -40 495 -2 8 -6 33 -10 55
-3 22 -10 54 -15 71 -6 17 -12 40 -14 50 -7 34 -83 237 -119 319 -44 99 -111
227 -149 282 -15 23 -28 44 -28 48 0 10 -117 173 -184 255 -62 77 -211 230
-301 309 -194 172 -502 355 -740 441 -49 18 -99 36 -110 41 -11 4 -38 13 -60
19 -22 6 -47 14 -55 17 -18 7 -26 9 -60 16 -14 3 -56 12 -95 21 -63 13 -117
22 -255 42 -46 6 -416 15 -422 9z m407 -409 c17 -3 46 -8 65 -10 19 -3 46 -7
60 -10 14 -3 50 -11 80 -17 162 -32 393 -117 535 -197 33 -19 69 -38 80 -43
21 -10 39 -21 131 -84 69 -46 74 -51 168 -130 113 -95 196 -182 323 -339 31
-39 142 -213 181 -286 36 -67 110 -228 116 -255 4 -13 15 -44 26 -70 23 -52
57 -195 65 -270 11 -104 17 -168 20 -230 22 -377 26 -432 39 -500 2 -11 7 -40
11 -65 9 -55 61 -232 82 -280 26 -59 40 -92 67 -160 15 -36 31 -74 36 -85 29
-65 43 -61 -198 -60 -240 1 -297 -8 -346 -53 -47 -45 -63 -93 -66 -200 -4
-226 -19 -330 -58 -411 -25 -52 -76 -100 -132 -123 -76 -32 -221 -41 -380 -23
-128 14 -172 5 -229 -52 -55 -54 -54 -47 -57 -473 -1 -217 -3 -401 -3 -407 -1
-10 -228 -13 -1060 -13 l-1058 0 -2 72 c-3 78 -5 105 -15 208 -7 75 -25 211
-32 255 -3 17 -7 44 -9 60 -2 17 -6 41 -9 55 -15 71 -18 82 -36 160 -69 300
-181 586 -326 830 -64 109 -135 247 -165 323 -12 29 -26 63 -32 77 -6 14 -11
27 -11 30 -1 3 -6 19 -12 35 -7 17 -17 50 -24 75 -7 25 -18 61 -26 81 -7 20
-11 39 -8 42 3 3 1 14 -4 24 -5 10 -13 38 -17 63 -9 58 -12 78 -19 115 -27
151 -27 414 0 606 5 34 23 111 48 209 28 106 136 375 201 498 114 214 338 476
535 622 18 14 38 30 44 35 13 12 131 89 179 117 218 126 473 213 737 252 87
12 449 14 505 2z"/>
<path d="M2589 4795 c-59 -32 -56 -135 5 -162 11 -6 92 -9 179 -9 l159 1 24
28 c34 40 32 90 -5 128 l-29 29 -154 0 c-111 -1 -160 -5 -179 -15z"/>
<path d="M2305 4752 c-6 -4 -37 -18 -70 -31 -33 -13 -79 -32 -102 -42 -24 -10
-47 -19 -51 -19 -5 0 -18 -11 -31 -24 -44 -46 -35 -112 20 -145 31 -19 31 -19
102 6 148 50 240 96 257 128 21 37 11 80 -25 113 -26 22 -82 30 -100 14z"/>
<path d="M3119 4722 c-40 -36 -43 -93 -7 -127 22 -22 169 -89 257 -118 92 -30
161 36 126 119 -11 27 -56 56 -130 84 -11 4 -53 22 -93 39 -89 38 -113 39
-153 3z"/>
<path d="M3623 4519 c-35 -13 -56 -54 -50 -98 4 -33 21 -56 114 -150 99 -101
112 -111 145 -111 51 0 87 33 94 86 5 40 4 41 -97 148 -125 131 -150 146 -206
125z"/>
<path d="M1846 4509 c-18 -5 -71 -49 -129 -106 -95 -95 -125 -134 -121 -160 1
-7 2 -19 3 -27 2 -27 53 -66 87 -66 37 0 62 18 175 132 106 105 117 130 82
189 -20 34 -57 49 -97 38z"/>
<path d="M2385 4300 c-238 -109 -244 -113 -261 -148 -18 -38 -13 -62 27 -116
34 -47 36 -73 10 -125 -40 -77 -118 -96 -193 -46 -90 60 -133 39 -195 -93 -25
-53 -58 -123 -73 -154 -16 -32 -26 -58 -22 -58 4 0 0 -5 -8 -10 -10 -6 -15
-25 -15 -54 0 -54 23 -82 79 -97 101 -25 130 -54 133 -135 2 -53 -27 -121 -46
-109 -5 3 -12 1 -16 -5 -3 -5 -17 -10 -31 -10 -55 0 -104 -47 -104 -100 0 -19
19 -72 56 -155 10 -22 18 -42 19 -45 0 -3 10 -25 21 -50 11 -25 29 -67 39 -93
10 -26 30 -57 44 -68 33 -26 87 -23 124 8 52 42 137 21 183 -46 31 -46 30 -72
-6 -135 -36 -64 -34 -107 7 -142 15 -13 34 -24 41 -24 7 0 20 -4 30 -10 55
-31 306 -119 332 -116 48 6 74 35 85 96 3 18 10 41 15 51 12 21 94 49 135 44
17 -2 35 -3 41 -4 23 -2 64 -54 70 -90 10 -54 39 -89 80 -97 37 -7 77 8 309
116 117 55 138 77 125 135 -5 21 -13 41 -18 44 -5 3 -15 17 -21 30 -20 37 -5
87 39 131 51 51 95 60 150 31 72 -37 128 -21 156 45 8 19 14 35 14 36 0 2 22
59 50 128 65 162 70 187 37 226 -15 18 -44 36 -69 43 -71 21 -108 68 -108 136
0 78 43 125 115 125 51 0 83 16 105 52 24 40 22 50 -28 163 -85 192 -133 285
-151 294 -42 23 -69 20 -122 -15 -85 -54 -150 -43 -202 36 -19 30 -15 65 14
123 18 35 20 45 10 79 -12 37 -17 41 -199 132 -103 51 -199 94 -213 94 -43 -1
-78 -37 -94 -97 -18 -68 -48 -99 -105 -109 -77 -13 -123 24 -135 109 -11 73
-47 110 -108 109 -12 -1 -80 -28 -152 -60z m113 -197 c57 -124 222 -183 367
-132 66 23 104 51 149 111 l28 37 69 -35 c62 -31 69 -37 63 -58 -31 -126 42
-267 173 -331 45 -22 72 -28 128 -29 38 0 82 2 97 7 26 7 29 4 53 -43 14 -27
25 -54 25 -59 0 -6 -17 -19 -39 -30 -86 -44 -145 -154 -146 -271 0 -118 43
-209 128 -266 41 -27 41 -29 9 -110 l-16 -41 -71 1 c-57 1 -80 -4 -125 -27
-78 -38 -132 -93 -171 -173 -29 -61 -33 -78 -32 -146 1 -67 -1 -78 -16 -78 -9
0 -22 -5 -29 -12 -6 -6 -28 -17 -47 -24 -32 -11 -37 -10 -43 4 -18 51 -121
126 -189 138 -90 17 -187 3 -261 -37 -36 -20 -107 -88 -114 -110 -2 -7 -28 -1
-71 16 -64 26 -67 28 -60 54 27 95 -12 216 -93 291 -72 66 -144 95 -238 95
l-78 0 -29 65 c-28 61 -29 65 -12 77 52 36 86 70 107 107 87 150 36 349 -113
446 l-23 16 27 54 c15 30 29 57 31 58 1 2 19 -1 40 -8 206 -68 438 165 381
385 -7 29 -5 32 45 57 68 34 80 34 96 1z"/>
<path d="M2700 3709 c-75 -13 -86 -16 -146 -46 -105 -51 -202 -168 -238 -286
-13 -43 -15 -192 -4 -232 59 -205 225 -341 425 -350 219 -9 405 124 467 333
15 51 17 196 3 248 -26 103 -136 238 -232 286 -84 43 -192 61 -275 47z m183
-204 c90 -45 151 -136 161 -241 6 -65 -42 -174 -97 -221 -57 -49 -108 -67
-187 -67 -64 0 -84 5 -127 28 -100 55 -143 124 -149 238 -10 213 209 357 399
263z"/>
<path d="M3954 4099 c-61 -40 -58 -75 22 -234 67 -134 89 -159 138 -161 41 -1
75 24 87 66 12 38 10 43 -56 175 -38 75 -75 140 -82 146 -28 24 -80 27 -109 8z"/>
<path d="M1469 4096 c-22 -11 -113 -154 -159 -252 -43 -91 33 -175 122 -133
24 11 164 250 168 285 4 35 -12 80 -32 93 -28 18 -72 21 -99 7z"/>
<path d="M1259 3581 c-16 -16 -30 -38 -30 -48 -2 -22 -5 -45 -13 -103 -23
-168 -23 -183 -1 -216 32 -49 100 -53 141 -9 13 14 24 31 25 38 3 41 6 66 12
97 3 19 9 62 13 95 3 33 8 67 9 76 5 25 -24 75 -51 88 -41 18 -74 13 -105 -18z"/>
<path d="M4143 3586 c-26 -23 -28 -29 -27 -98 0 -40 3 -115 7 -167 5 -81 10
-98 30 -118 28 -29 72 -35 109 -17 50 26 54 48 44 224 -8 136 -12 156 -43 180
-35 27 -85 26 -120 -4z"/>
<path d="M1295 3072 c-29 -6 -63 -40 -70 -72 -4 -18 8 -68 36 -151 62 -185 72
-199 139 -199 38 0 90 47 90 82 0 38 -81 271 -106 304 -23 32 -52 43 -89 36z"/>
<path d="M4152 3046 c-31 -17 -36 -30 -78 -186 -33 -125 -36 -148 -18 -181 18
-36 45 -50 89 -47 55 3 72 31 110 179 43 166 43 182 6 220 -31 30 -70 36 -109
15z"/>
<path d="M1464 2545 c-29 -20 -46 -64 -36 -97 12 -45 178 -255 209 -266 43
-14 92 6 114 47 16 30 16 38 4 67 -16 39 -160 230 -189 250 -26 18 -76 18
-102 -1z"/>
<path d="M3928 2533 c-51 -54 -178 -228 -179 -245 -1 -10 -2 -24 -2 -30 0 -7
5 -25 12 -40 16 -32 51 -44 115 -39 8 1 41 35 73 77 32 42 63 81 68 88 33 37
68 99 68 122 0 83 -99 126 -155 67z"/>
<path d="M3613 2171 c-34 -9 -250 -173 -262 -199 -35 -74 35 -157 109 -130 25
9 230 158 249 182 6 7 13 28 16 48 10 61 -50 114 -112 99z"/>
<path d="M1855 2156 c-17 -7 -35 -20 -42 -28 -17 -20 -20 -72 -5 -100 15 -28
245 -175 284 -182 61 -10 119 64 97 122 -10 26 -42 62 -54 62 -4 0 -26 14 -50
30 -24 17 -48 30 -53 30 -6 0 -12 4 -14 8 -4 11 -95 63 -116 67 -10 2 -31 -3
-47 -9z"/>
<path d="M2330 1919 c-55 -22 -73 -74 -45 -128 20 -40 31 -44 180 -67 72 -11
92 -15 117 -20 60 -12 119 27 123 81 5 59 -36 96 -120 109 -49 7 -102 16 -135
22 -64 12 -97 13 -120 3z"/>
<path d="M3117 1914 c-2 -2 -87 -14 -147 -20 -107 -11 -133 -22 -151 -66 -15
-37 -3 -84 29 -109 24 -19 35 -20 104 -14 43 3 88 8 100 11 13 2 43 6 68 9 64
7 99 24 115 56 27 51 11 99 -39 123 -26 12 -70 18 -79 10z"/>
</g>
</svg>
