<?xml version="1.0" encoding="UTF-8" standalone="no"?>
<!-- Created with Inkscape (http://www.inkscape.org/) -->

<svg
   xmlns:dc="http://purl.org/dc/elements/1.1/"
   xmlns:cc="http://creativecommons.org/ns#"
   xmlns:rdf="http://www.w3.org/1999/02/22-rdf-syntax-ns#"
   xmlns:svg="http://www.w3.org/2000/svg"
   xmlns="http://www.w3.org/2000/svg"
   xmlns:sodipodi="http://sodipodi.sourceforge.net/DTD/sodipodi-0.dtd"
   xmlns:inkscape="http://www.inkscape.org/namespaces/inkscape"
   width="200"
   height="143"
   id="svg2"
   version="1.1"
   inkscape:version="0.48.4 r9939"
   sodipodi:docname="microcontroller-O.svg">
  <defs
     id="defs4" />
  <sodipodi:namedview
     id="base"
     pagecolor="#ffffff"
     bordercolor="#666666"
     borderopacity="1.0"
     inkscape:pageopacity="0.0"
     inkscape:pageshadow="2"
     inkscape:zoom="5.8811189"
     inkscape:cx="100"
     inkscape:cy="71.5"
     inkscape:document-units="px"
     inkscape:current-layer="layer1"
     showgrid="false"
     inkscape:window-width="1920"
     inkscape:window-height="1058"
     inkscape:window-x="-8"
     inkscape:window-y="-8"
     inkscape:window-maximized="1"
     inkscape:snap-bbox="true"
     inkscape:bbox-nodes="true"
     showguides="true"
     inkscape:guide-bbox="true"
     fit-margin-top="5"
     fit-margin-left="5"
     fit-margin-right="5"
     fit-margin-bottom="5" />
  <metadata
     id="metadata7">
    <rdf:RDF>
      <cc:Work
         rdf:about="">
        <dc:format>image/svg+xml</dc:format>
        <dc:type
           rdf:resource="http://purl.org/dc/dcmitype/StillImage" />
        <dc:title></dc:title>
      </cc:Work>
    </rdf:RDF>
  </metadata>
  <g
     inkscape:label="Calque 1"
     inkscape:groupmode="layer"
     id="layer1"
     transform="translate(-253,-405.81245)">
    <path
       style="fill:#ffffff;fill-opacity:1;stroke:none"
       d="m 276.0343,410.91483 0,23.22852 4.69694,0 c -0.001,-0.0425 0,-0.0854 0,-0.12803 0,-2.07998 1.67757,-3.75756 3.75754,-3.75756 2.07998,0 3.80026,1.67758 3.80026,3.75756 0,0.0428 10e-4,0.0857 0,0.12803 l 8.0702,0 c 0.61456,0 1.11018,0.52476 1.11018,1.15288 l 0,27.96816 c 0,0.62813 -0.49561,1.11019 -1.11018,1.11019 l -8.11289,0 c 0.005,0.0859 0.0426,0.16887 0.0426,0.25619 0,2.08321 -1.71704,3.75756 -3.80025,3.75756 -2.08321,0 -3.75756,-1.67435 -3.75756,-3.75756 0,-0.0873 0.0369,-0.17025 0.0426,-0.25619 l -4.73964,0 0,47.43912 2.51927,0 c 0.4498,-0.01 0.86396,0.40419 0.854,0.85399 l 0,0.42699 24.59489,0 c 0.35654,0.004 0.67895,0.32665 0.6832,0.68319 l 0,4.31265 c 2.49559,0.27551 4.44074,2.38554 4.44074,4.95314 0,2.5676 -1.94515,4.67764 -4.44074,4.95314 l 0,6.87462 c -0.004,0.35654 -0.32665,0.67895 -0.6832,0.68319 l -1.45178,0 c -0.19331,2.57294 -2.28381,4.56884 -4.91044,4.56884 -2.62096,0 -4.75569,-1.9959 -4.95313,-4.56884 l -13.27954,0 0,0.12803 c 0.01,0.4498 -0.4042,0.86396 -0.854,0.85399 l -2.51927,0 0,7.17351 164.43569,0 0,-4.52614 6.19142,-6.36223 0,-83.77637 -6.19142,-5.89253 0,-28.95025 -3.58676,-3.28786 -160.84893,0 z m 38.38683,1.53718 c 2.27228,0 4.09915,1.83298 4.09915,4.09915 0,2.26037 -1.82708,4.09915 -4.09915,4.09915 -2.26622,0 -4.09915,-1.83889 -4.09915,-4.09915 0,-2.26625 1.83292,-4.09915 4.09915,-4.09915 z m 14.26162,4.01375 50.55617,0 0,6.31953 -50.55617,0 0,-6.31953 z m 57.04651,0 50.55617,0 0,6.31953 -50.55617,0 0,-6.31953 z m -55.12503,1.92148 0,2.43387 2.43387,0 0,-2.43387 -2.43387,0 z m 6.31952,0 0,2.43387 2.43387,0 0,-2.43387 -2.43387,0 z m 6.31952,0 0,2.43387 2.43387,0 0,-2.43387 -2.43387,0 z m 6.31953,0 0,2.43387 2.43387,0 0,-2.43387 -2.43387,0 z m 6.31952,0 0,2.43387 2.43387,0 0,-2.43387 -2.43387,0 z m 6.31952,0 0,2.43387 2.43387,0 0,-2.43387 -2.43387,0 z m 6.31953,0 0,2.43387 2.43387,0 0,-2.43387 -2.43387,0 z m 6.31952,0 0,2.43387 2.47657,0 0,-2.43387 -2.47657,0 z m 12.80984,0 0,2.43387 2.47657,0 0,-2.43387 -2.47657,0 z m 6.31952,0 0,2.43387 2.43388,0 0,-2.43387 -2.43388,0 z m 6.31953,0 0,2.43387 2.43387,0 0,-2.43387 -2.43387,0 z m 6.31952,0 0,2.43387 2.47657,0 0,-2.43387 -2.47657,0 z m 6.36222,0 0,2.43387 2.43387,0 0,-2.43387 -2.43387,0 z m 6.31953,0 0,2.43387 2.43387,0 0,-2.43387 -2.43387,0 z m 6.27682,0 0,2.43387 2.43387,0 0,-2.43387 -2.43387,0 z m 6.36222,0 0,2.43387 2.43387,0 0,-2.43387 -2.43387,0 z M 308.8275,429.6599 c 0.11545,-0.0236 0.26167,0 0.38429,0 l 6.02063,0 c 0.84673,0.13432 1.49448,0.86315 1.49448,1.75068 0,0.88165 -0.6535,1.61636 -1.49448,1.75068 l 0,0.0426 -6.02063,0 c -0.9809,0 -1.79338,-0.81248 -1.79338,-1.79338 0,-0.85839 0.60106,-1.58528 1.40909,-1.75068 z m 11.27266,0 c 0.11559,-0.0236 0.21895,0 0.34159,0 l 6.06333,0 c 0.84653,0.13432 1.49448,0.86315 1.49448,1.75068 0,0.88165 -0.64795,1.61636 -1.49448,1.75068 l 0,0.0426 -6.06333,0 c -0.98111,0 -1.75068,-0.81248 -1.75068,-1.79338 0,-0.85839 0.59986,-1.58528 1.40909,-1.75068 z m 18.23267,5.12394 c 0.11505,-0.0236 0.21971,0 0.3416,0 l 6.02063,0 c 0.84672,0.14019 1.49448,0.86894 1.49448,1.75068 0,0.88753 -0.65372,1.6165 -1.49448,1.75068 l 0,0.0426 -6.02063,0 c -0.9809,0 -1.79338,-0.81247 -1.79338,-1.79338 0,-0.85829 0.6465,-1.58526 1.45178,-1.75068 z m -77.96924,0.42699 c -0.5851,0 -1.0248,0.43969 -1.0248,1.02479 l 0,26.04668 c 0,0.5851 0.4397,1.06749 1.0248,1.06749 l 35.09897,0 c 0.5851,0 1.06749,-0.48239 1.06749,-1.06749 l 0,-26.04668 c 0,-0.5851 -0.48239,-1.02479 -1.06749,-1.02479 l -35.09897,0 z m 108.45667,0.89669 c 2.99233,0 5.38242,1.11423 7.85671,3.62946 l 1.75067,1.79338 1.11019,-1.32369 c 3.78826,-4.48631 9.99121,-5.40019 14.17623,-2.09227 2.30181,1.81954 3.41845,4.25509 3.28786,7.25891 -0.17864,4.10304 -2.71518,7.1877 -6.83192,8.2837 -3.54926,0.94491 -7.14993,-0.30353 -10.20517,-3.50136 l -1.66528,-1.75068 -0.34161,0.5551 c -0.69132,1.04538 -3.23333,3.25125 -4.35534,3.80025 -2.43359,1.19068 -4.81352,1.47716 -7.13081,0.85399 -2.73946,-0.7367 -5.28618,-2.87599 -6.23413,-5.29474 -0.63415,-1.61782 -0.70172,-4.70976 -0.12802,-6.23412 1.34669,-3.57308 4.8222,-5.97793 8.71069,-5.97793 z m -55.68012,3.33056 2.00688,0 0,1.45178 1.96417,0 0,-1.45178 2.00688,0 0,1.45178 1.96418,0 0,-1.45178 1.96417,0 0,1.45178 2.73277,0 c 1.25316,0 2.26307,1.00991 2.26307,2.26308 l 0,2.22037 1.19559,0 0,2.00688 -1.19559,0 0,1.96417 1.19559,0 0,2.00688 -1.19559,0 0,1.96417 1.19559,0 0,2.00688 -1.19559,0 0,2.22037 c 0,1.25317 -1.00991,2.26307 -2.26307,2.26307 l -2.73277,0 0,1.45179 -1.96417,0 0,-1.45179 -1.96418,0 0,1.45179 -2.00688,0 0,-1.45179 -1.96417,0 0,1.45179 -2.00688,0 0,-1.45179 -2.47657,0 c -1.25316,0 -2.26307,-1.0099 -2.26307,-2.26307 l 0,-2.22037 -1.19558,0 0,-2.00688 1.19558,0 0,-1.96417 -1.19558,0 0,-2.00688 1.19558,0 0,-1.96417 -1.19558,0 0,-2.00688 1.19558,0 0,-2.22037 c 0,-1.25317 1.00991,-2.26308 2.26307,-2.26308 l 2.47657,0 0,-1.45178 z m 55.38123,0.0426 c -1.72331,0.0417 -2.95186,0.59796 -4.14185,1.92148 -1.54738,1.72089 -1.88158,3.82647 -0.93939,5.84983 1.28399,2.7571 4.49763,4.03394 7.60051,3.03166 1.49199,-0.48184 3.39501,-2.03986 4.56884,-3.75755 l 0.98209,-1.40902 -0.5124,-0.89669 c -0.69945,-1.27106 -2.96128,-3.53625 -4.14185,-4.14185 -0.68595,-0.35187 -1.49755,-0.52907 -2.64736,-0.59779 -0.26773,-0.016 -0.52241,-0.005 -0.76859,0 z m 18.57427,0 c -1.27551,0.0951 -2.29557,0.52147 -3.50136,1.40909 -1.2554,0.92414 -3.28786,3.46188 -3.28786,4.09915 0,0.79693 2.48299,3.71206 3.92835,4.61154 1.32984,0.82748 2.2694,1.0649 3.88566,0.98209 1.00035,-0.0511 1.86224,-0.21618 2.43387,-0.5124 0.48469,-0.25122 1.25961,-0.85905 1.70798,-1.32368 2.38853,-2.47482 1.93104,-6.2742 -0.98209,-8.2837 -1.07737,-0.74319 -1.46273,-0.88507 -2.81817,-0.98209 -0.50385,-0.0361 -0.94122,-0.0317 -1.36638,0 z m -48.42121,0.3416 6.02063,0 c 0.84672,0.14019 1.49448,0.86894 1.49448,1.75068 0,0.88174 -0.65372,1.6165 -1.49448,1.75068 l 0,0.0426 -6.02063,0 c -0.9809,0 -1.79338,-0.81239 -1.79338,-1.79338 0,-0.98091 0.81823,-1.75068 1.79338,-1.75068 z m 48.03691,2.47657 1.70798,0 0,1.79338 2.00688,0 0,1.96417 -2.00688,0 0,1.75068 -1.70798,0 0,-1.75068 -2.00687,0 0,-1.96417 2.00687,0 0,-1.79338 z m -20.41035,1.79338 5.63633,0 0,1.79338 -5.63633,0 0,-1.79338 z m -27.62656,0.76859 6.02063,0 0,0.0426 c 0.84672,0.13431 1.49448,0.82624 1.49448,1.70798 0,0.88753 -0.65372,1.61057 -1.49448,1.75068 l 0,0.0426 -6.02063,0 c -0.9809,0 -1.79338,-0.81239 -1.79338,-1.79338 0,-0.96923 0.81823,-1.75068 1.79338,-1.75068 z m -0.3416,5.03854 c 0.11505,-0.0239 0.21971,0 0.3416,0 l 6.02063,0 c 0.84672,0.13418 1.49448,0.86322 1.49448,1.75067 0,0.87586 -0.65372,1.60488 -1.49448,1.75068 l 0,0.0426 -6.02063,0 c -0.9809,0 -1.79338,-0.81238 -1.79338,-1.79337 0,-0.84808 0.64651,-1.5832 1.45178,-1.75068 z m 68.10567,2.00687 6.06333,0 c 0.97515,0 1.79338,0.81239 1.79338,1.79338 0,0.98091 -0.81823,1.79338 -1.79338,1.79338 l -6.06333,0 0,-0.0426 c -0.84673,-0.12844 -1.49448,-0.86315 -1.49448,-1.75068 0,-0.88754 0.65371,-1.6165 1.49448,-1.75068 l 0,-0.0426 z m 11.61426,0 6.06333,0 0,0.0426 c 0.84672,0.1401 1.49448,0.86323 1.49448,1.75068 0,0.88173 -0.64776,1.6165 -1.49448,1.75068 l 0,0.0426 -6.06333,0 c -0.96939,0 -1.79338,-0.81237 -1.79338,-1.79338 0,-0.9751 0.82399,-1.79337 1.79338,-1.79337 z m 22.63072,0.12803 c 1.45135,0 2.64737,1.15335 2.64737,2.60467 0,1.4633 -1.19602,2.64737 -2.64737,2.64737 -1.45137,0 -2.64736,-1.18415 -2.64736,-2.64737 0,-1.45132 1.19013,-2.60467 2.64736,-2.60467 z m -102.00905,2.90357 6.02063,0 c 0.84672,0.14599 1.49448,0.86902 1.49448,1.75068 0,0.88753 -0.65372,1.61649 -1.49448,1.75067 l 0,0.0426 -6.02063,0 c -0.9809,0 -1.79338,-0.81247 -1.79338,-1.79337 0,-0.96933 0.81823,-1.75068 1.79338,-1.75068 z m 92.78597,9.86358 3.45865,0 2.94627,0 3.45866,0 1.32368,1.32368 0,3.45866 -1.32368,1.32368 -3.45866,0 -2.94627,0 -3.45865,0 -1.32369,-1.32355 0,-3.45865 1.32369,-1.32369 z m -102.00906,1.11018 c 0.98111,0 1.79338,0.82415 1.79338,1.79338 l 0,4.26995 -0.0426,0 c -0.12844,0.85248 -0.86902,1.49448 -1.75068,1.49448 -0.88742,0 -1.61568,-0.642 -1.75068,-1.49448 l 0,-4.26995 c 0,-0.96923 0.77574,-1.79338 1.75068,-1.79338 z m -20.06875,0.3843 7.68589,0 c 2.03832,0 3.67217,1.62027 3.67217,3.62945 l 0,0.1708 c 0,2.00919 -1.63385,3.62946 -3.67217,3.62946 l -7.68589,0 c -2.03832,0 -3.71486,-1.62027 -3.71486,-3.62946 l 0,-0.1708 c 0,-2.00918 1.67654,-3.62945 3.71486,-3.62945 z m 28.95024,0.34159 c 0.11505,-0.0238 0.21971,0 0.3416,0 l 6.02063,0 c 0.84672,0.14599 1.49448,0.88062 1.49448,1.75068 0,0.88173 -0.65372,1.6221 -1.49448,1.75068 l 0,0.0426 -6.02063,0 c -0.9809,0 -1.79338,-0.81248 -1.79338,-1.79338 0,-0.84815 0.6465,-1.5843 1.45178,-1.75067 z m 93.89616,0.0426 0,2.04958 2.04957,0 0,-2.04958 -2.04957,0 z m 6.36222,0 0,2.04958 2.00688,0 0,-2.04958 -2.00688,0 z m -34.75738,2.69007 2.17768,0 3.88564,0 6.31952,0 4.39806,0 1.62258,0 c 0.9809,0 1.79338,0.81238 1.79338,1.79338 0,0.98091 -0.81248,1.75068 -1.79338,1.75068 l -1.62258,0 0,7.8567 1.62258,0 c 0.9809,0 1.79338,0.81247 1.79338,1.79338 0,0.981 -0.81248,1.75068 -1.79338,1.75068 l -1.62258,0 -4.39806,0 -6.31952,0 -3.88564,0 -2.17768,0 c -0.97514,0 -1.75067,-0.76968 -1.75067,-1.75068 0,-0.98091 0.77553,-1.79338 1.75067,-1.79338 l 2.17768,0 0,-7.8567 -2.17768,0 c -0.97514,0 -1.75067,-0.76977 -1.75067,-1.75068 0,-0.981 0.77553,-1.79338 1.75067,-1.79338 z m -42.57138,0.0426 6.02063,0 0,0.0426 c 0.85824,0.1402 1.49447,0.87491 1.49447,1.75068 0,0.88754 -0.63623,1.6165 -1.49447,1.75068 l -6.02063,0 c -0.96918,0 -1.79337,-0.76976 -1.79337,-1.75068 0,-0.98099 0.82419,-1.79338 1.79337,-1.79338 z m 16.52469,0.2562 c 0.78958,0 1.44425,0.57738 1.45178,1.32368 l 0,0.0426 c 0,0.75134 -0.65685,1.36639 -1.45178,1.36639 -0.79491,0 -1.40908,-0.61505 -1.40908,-1.36639 0,-0.75131 0.61417,-1.36638 1.40908,-1.36638 z m 6.27684,0 c 0.78956,0 1.44421,0.57738 1.45178,1.32368 l 0,0.0426 c 0,0.75134 -0.65686,1.36639 -1.45178,1.36639 -0.79492,0 -1.45179,-0.61505 -1.45179,-1.36639 0,-0.75131 0.65687,-1.36638 1.45179,-1.36638 z m 6.23412,0 c 0.78956,0 1.44425,0.57738 1.45178,1.32368 l 0,0.0426 c 0,0.75134 -0.65686,1.36639 -1.45178,1.36639 -0.79492,0 -1.40908,-0.61505 -1.40908,-1.36639 0,-0.75131 0.61416,-1.36638 1.40908,-1.36638 z m 6.27682,0 c 0.78957,0 1.40154,0.57738 1.40909,1.32368 l 0,0.0426 c 0,0.75134 -0.61417,1.36639 -1.40909,1.36639 -0.79492,0 -1.45178,-0.61505 -1.45178,-1.36639 0,-0.75131 0.65686,-1.36638 1.45178,-1.36638 z m 10.84567,0.2562 c -0.72983,0 -1.32369,0.59383 -1.32369,1.32368 0,0.74155 0.59385,1.36638 1.32369,1.36638 0.74151,0 1.36637,-0.63062 1.36637,-1.36638 0,-0.72985 -0.61889,-1.31549 -1.36637,-1.32368 z m 11.22996,0 c -0.7475,0 -1.32369,0.59383 -1.32369,1.32368 0,0.74155 0.57045,1.36638 1.32369,1.36638 0.72982,0 1.32369,-0.63062 1.32369,-1.36638 0,-0.72985 -0.58812,-1.31549 -1.32369,-1.32368 z m 12.80985,1.19558 3.45864,0 2.94627,0 3.45867,0 1.32368,1.32369 0,3.45865 -1.32368,1.32369 -3.45867,0 -2.94627,0 -3.45864,0 -1.3237,-1.32341 0,-3.45866 1.3237,-1.32368 z m -92.74328,0.4697 6.06334,0 0,0.0426 c 0.84672,0.14019 1.49448,0.87492 1.49448,1.75068 0,0.88753 -0.65373,1.6165 -1.49448,1.75067 l 0,0.0426 -6.06334,0 c -0.9809,0 -1.75067,-0.81239 -1.75067,-1.79338 0,-0.97512 0.77553,-1.79338 1.75067,-1.79338 z m 74.33979,0.93938 c -2.38632,0 -4.31264,1.96902 -4.31264,4.35535 0,2.38634 1.92631,4.31265 4.31264,4.31265 2.38635,0 4.31266,-1.92631 4.31266,-4.31265 0,-2.38633 -1.92631,-4.35535 -4.31266,-4.35535 z m 19.17208,0.4697 0,2.04957 2.04957,0 0,-2.04957 -2.04957,0 z m 6.36222,0 0,2.04957 2.00688,0 0,-2.04957 -2.00688,0 z m -74.98028,2.13497 15.41451,0 0,0.0854 c 2.54593,0.39695 4.52614,2.58364 4.52614,5.25204 0,2.66857 -1.98039,4.8919 -4.52614,5.29473 l 0,0.0854 -15.41451,0 c -2.95464,0 -5.33744,-2.41396 -5.33744,-5.38013 0,-2.95459 2.3828,-5.33744 5.33744,-5.33744 z m -55.29583,1.45179 5.38014,0 c 0.34919,0 0.64049,0.40846 0.64049,0.93938 l 0,0.1708 c 0,0.53092 -0.2913,0.98209 -0.64049,0.98209 l -5.38014,0 c -0.34919,0 -0.64049,-0.45117 -0.64049,-0.98209 l 0,-0.1708 c 0,-0.53092 0.2913,-0.93938 0.64049,-0.93938 z m 8.3691,0 5.42283,0 c 0.3492,0 0.5978,0.40846 0.5978,0.93938 l 0,0.1708 c 0,0.53092 -0.2486,0.98209 -0.5978,0.98209 l -5.42283,0 c -0.34919,0 -0.64049,-0.45117 -0.64049,-0.98209 l 0,-0.1708 c 0,-0.53092 0.2913,-0.93938 0.64049,-0.93938 z m 22.07562,0 6.06334,0 0,0.0426 c 0.84672,0.13431 1.49447,0.86903 1.49447,1.75068 0,0.88165 -0.65372,1.62196 -1.49447,1.75067 l -6.06334,0 c -0.9809,0 -1.75068,-0.76968 -1.75068,-1.75067 0,-0.98092 0.77553,-1.79338 1.75068,-1.79338 z m 92.70058,0.85398 3.45864,0 2.94627,0 3.45867,0 1.32368,1.32369 0,3.45866 -1.32368,1.32368 -3.45867,0 -2.94627,0 -3.45864,0 -1.3237,-1.32341 0,-3.45866 1.3237,-1.32368 z m 0.76859,1.92148 0,2.00688 2.04957,0 0,-2.00688 -2.04957,0 z m 6.36222,0 0,2.00688 2.00688,0 0,-2.00688 -2.00688,0 z m -31.12792,1.79338 c -0.73848,0 -1.36639,0.58521 -1.36639,1.32368 0,0.73848 0.62791,1.32369 1.36639,1.32369 0.73848,0 1.32367,-0.58521 1.32367,-1.32369 0,-0.73847 -0.58519,-1.32368 -1.32367,-1.32368 z m 11.18725,0 c -0.73847,0 -1.32368,0.58521 -1.32368,1.32368 0,0.73848 0.58521,1.32369 1.32368,1.32369 0.73848,0 1.3237,-0.58521 1.3237,-1.32369 0,-0.73847 -0.58522,-1.32368 -1.3237,-1.32368 z m -79.97611,0.42699 6.02063,0 0,0.0426 c 0.84672,0.14009 1.49447,0.87482 1.49447,1.75067 0,0.89341 -0.65372,1.59129 -1.49447,1.70798 l 0,0.0426 -6.02063,0 c -0.9809,0 -1.79339,-0.76976 -1.79339,-1.75067 0,-0.98092 0.81824,-1.79338 1.79339,-1.79338 z m 50.81237,1.45179 6.06334,0 0,0.0426 c 0.84672,0.14598 1.49448,0.86903 1.49448,1.75068 0,0.88166 -0.64776,1.61047 -1.49448,1.75067 l 0,0.0426 -6.06334,0 c -0.98686,0 -1.75067,-0.80658 -1.75067,-1.79338 0,-0.9809 0.76381,-1.79338 1.75067,-1.79338 z m -74.98028,2.56197 12.51095,0 c 1.03575,0 1.87878,0.80033 1.87878,1.83607 l 0,1.11019 2.90356,0 0,2.00687 -2.90356,0 0,1.96418 2.90356,0 0,2.00688 -2.90356,0 0,1.96417 2.90356,0 0,2.00688 -2.90356,0 0,0.85399 c 0,1.03574 -0.84303,1.83607 -1.87878,1.83607 l -12.51095,0 c -1.03575,0 -1.87878,-0.80033 -1.87878,-1.83607 l 0,-0.85399 -2.90356,0 0,-2.00688 2.90356,0 0,-1.96417 -2.90356,0 0,-2.00688 2.90356,0 0,-1.96418 -2.90356,0 0,-2.00687 2.90356,0 0,-1.11019 c 0,-1.03574 0.84303,-1.83607 1.87878,-1.83607 z m 33.98879,6.06332 2.60467,0 0,3.07436 2.00687,0 0,-3.07436 2.60467,0 0,3.07436 2.00688,0 0,-3.07436 2.60467,0 0,3.07436 1.96417,0 0,-3.07436 2.64737,0 0,3.07436 1.96418,0 0,-3.07436 2.60466,0 0,3.07436 2.00688,0 0,-3.07436 2.60467,0 0,3.07436 1.96417,0 0,-3.07436 2.60467,0 0,3.07436 2.00688,0 0,-3.07436 2.60467,0 0,3.07436 1.96417,0 0,-3.07436 2.60467,0 0,3.07436 2.00687,0 0,-3.07436 2.60467,0 0,3.07436 1.96418,0 0,-3.07436 2.64737,0 0,3.07436 1.96417,0 0,-3.07436 2.60467,0 0,3.07436 2.00688,0 0,-3.07436 2.60466,0 0,3.07436 2.00688,0 0,-3.07436 2.60467,0 0,3.07436 1.96417,0 0,-3.07436 2.60467,0 0,3.07436 2.00688,0 0,-3.07436 2.60467,0 0,3.07436 1.96417,0 0,-3.07436 2.60467,0 0,3.07436 2.00688,0 0,-3.07436 2.60466,0 0,3.07436 1.96418,0 c 0.2621,0 0.46969,0.56088 0.46969,1.23829 l 0,13.96273 c 0,0.67741 -0.20759,1.23828 -0.46969,1.23828 l -1.96418,0 0,2.98897 -2.60466,0 0,-2.98897 -2.00688,0 0,2.98897 -2.60467,0 0,-2.98897 -1.96417,0 0,2.98897 -2.60467,0 0,-2.98897 -2.00688,0 0,2.98897 -2.60467,0 0,-2.98897 -1.96417,0 0,2.98897 -2.60467,0 0,-2.98897 -2.00688,0 0,2.98897 -2.60466,0 0,-2.98897 -2.00688,0 0,2.98897 -2.60467,0 0,-2.98897 -1.96417,0 0,2.98897 -2.64737,0 0,-2.98897 -1.96418,0 0,2.98897 -2.60467,0 0,-2.98897 -2.00687,0 0,2.98897 -2.60467,0 0,-2.98897 -1.96417,0 0,2.98897 -2.60467,0 0,-2.98897 -2.00688,0 0,2.98897 -2.60467,0 0,-2.98897 -1.96417,0 0,2.98897 -2.60467,0 0,-2.98897 -2.00688,0 0,2.98897 -2.60466,0 0,-2.98897 -1.96418,0 0,2.98897 -2.64737,0 0,-2.98897 -1.96417,0 0,2.98897 -2.60467,0 0,-2.98897 -2.00688,0 0,2.98897 -2.60467,0 0,-2.98897 -2.00687,0 0,2.98897 -2.60467,0 0,-2.98897 -0.72589,0 c -0.2621,0 -0.46969,-0.56087 -0.46969,-1.23828 l 0,-13.96273 c 0,-0.67741 0.20759,-1.23829 0.46969,-1.23829 l 0.72589,0 0,-3.07436 z m -64.39081,0.427 17.89108,0 0,1.28098 4.14184,0 0,0.0426 c 0.85249,0.14011 1.49449,0.86902 1.49449,1.75068 0,0.87585 -0.64777,1.56787 -1.49449,1.70798 l 0,0.0426 -4.14184,0 0,2.22037 4.14184,0 0,0.0426 c 0.85249,0.15189 1.49449,0.86902 1.49449,1.75068 0,0.88174 -0.64777,1.61049 -1.49449,1.75068 l -4.14184,0 0,2.22037 4.14184,0 0,0.0426 c 0.85249,0.1402 1.49449,0.86314 1.49449,1.75067 0,0.88754 -0.64777,1.62798 -1.49449,1.75068 l -4.14184,0 0,0.64049 -17.89108,0 0,-2.04957 -3.07437,0 0,-12.85254 3.07437,0 0,-2.09228 z m 27.75466,16.99439 15.45721,0 0,7.04541 -15.45721,0 0,-7.04541 z m -41.50389,3.33056 c -0.28219,0.0925 -0.48443,0.3866 -0.4697,0.68319 l 0,22.16103 c 4e-5,0.3577 0.32549,0.68315 0.68319,0.68319 l 7.72861,0 c 0.3577,-4e-5 0.68315,-0.32549 0.68319,-0.68319 l 0,-0.55509 24.296,0 c 0.35771,-5e-5 0.68315,-0.32549 0.68319,-0.6832 l 0,-19.38556 c -4e-5,-0.35771 -0.32548,-0.68315 -0.68319,-0.68319 l -24.296,0 0,-0.85399 c -4e-5,-0.35771 -0.32549,-0.68315 -0.68319,-0.68319 l -7.72861,0 c -0.0426,-0.004 -0.0857,-0.004 -0.12803,0 -0.0284,-10e-4 -0.057,-10e-4 -0.0854,0 z m 51.19667,5.84983 c 4.77947,0 8.66798,3.88991 8.66798,8.71069 0,4.8207 -3.88851,8.75339 -8.66798,8.75339 -4.77948,0 -8.66799,-3.93269 -8.66799,-8.75339 0,-4.82078 3.88852,-8.71069 8.66799,-8.71069 z m 19.59906,0.0426 c 4.77947,0 8.66798,3.88991 8.66798,8.71069 0,4.8207 -3.88851,8.75339 -8.66798,8.75339 -4.77946,0 -8.66799,-3.93269 -8.66799,-8.75339 0,-4.82078 3.88853,-8.71069 8.66799,-8.71069 z m 99.95948,2.22037 c 2.11761,0 3.84295,1.7135 3.84295,3.84295 0,2.12344 -1.70756,3.84296 -3.84295,3.84296 -2.11153,0 -3.84295,-1.71943 -3.84295,-3.84296 0,-2.12345 1.72536,-3.84295 3.84295,-3.84295 z m -87.10694,13.74923 37.95984,0 0,6.31952 -37.95984,0 0,-6.31952 z m 44.40746,0 37.95984,0 0,6.31952 -37.95984,0 0,-6.31952 z m -42.44329,1.92148 0,2.43387 2.43388,0 0,-2.43387 -2.43388,0 z m 6.31952,0 0,2.43387 2.47658,0 0,-2.43387 -2.47658,0 z m 6.36222,0 0,2.43387 2.43388,0 0,-2.43387 -2.43388,0 z m 6.31953,0 0,2.43387 2.43388,0 0,-2.43387 -2.43388,0 z m 6.31952,0 0,2.43387 2.43388,0 0,-2.43387 -2.43388,0 z m 6.31952,0 0,2.43387 2.43388,0 0,-2.43387 -2.43388,0 z m 12.76716,0 0,2.43387 2.43387,0 0,-2.43387 -2.43387,0 z m 6.31952,0 0,2.43387 2.43387,0 0,-2.43387 -2.43387,0 z m 6.36221,0 0,2.43387 2.43388,0 0,-2.43387 -2.43388,0 z m 6.27683,0 0,2.43387 2.47656,0 0,-2.43387 -2.47656,0 z m 6.36222,0 0,2.43387 2.43388,0 0,-2.43387 -2.43388,0 z m 6.31952,0 0,2.43387 2.43388,0 0,-2.43387 -2.43388,0 z"
       id="path4346"
       inkscape:connector-curvature="0" />
  </g>
</svg>
